PathFileType	4	(X/Y/Z)	pose_F01_0-94.trc
DataRate	CameraRate	NumFrames	NumMarkers	Units	OrigDataRate	OrigDataStartFrame	OrigNumFrames
30	30	6	21	m	30	23	94
Frame#	Time	CHip			RHip			RKnee			RAnkle			RBigToe			RSmallToe			RHeel			LHip			LKnee			LAnkle			LBigToe			LSmallToe			LHeel			Neck			Nose			RShoulder			RElbow			RWrist			LShoulder			LElbow			LWrist			
		X1	Y1	Z1	X2	Y2	Z2	X3	Y3	Z3	X4	Y4	Z4	X5	Y5	Z5	X6	Y6	Z6	X7	Y7	Z7	X8	Y8	Z8	X9	Y9	Z9	X10	Y10	Z10	X11	Y11	Z11	X12	Y12	Z12	X13	Y13	Z13	X14	Y14	Z14	X15	Y15	Z15	X16	Y16	Z16	X17	Y17	Z17	X18	Y18	Z18	X19	Y19	Z19	X20	Y20	Z20	X21	Y21	Z21	
23	0.7666666666666667	-0.29068847288605554	1.808848998294434	-0.39927787782047225	-0.30732554667731904	1.807664923134699	-0.3390541146884761	-0.30604386449585164	1.67169138848191	-0.3040399209271969	-0.30390343006722287	1.540152635500783	-0.2695997738018256	-0.26412673497509775	1.5106861327214827	-0.21660184884335415	-0.2807393793523381	1.515357739385505	-0.2025386674233352	-0.306981299640379	1.5189156876756764	-0.2730449951048667	-0.27982875804831925	1.8099786093893144	-0.4478071984818416	-0.28921134485825184	1.6830243226711732	-0.4589967183782701	-0.30028540741985127	1.5774633938306284	-0.4552195648028982	-0.26828498080724966	1.540340660773363	-0.4635054106477799	-0.2698401471217914	1.5539515545448284	-0.4958433343127238	-0.31847357521801883	1.5705165070534888	-0.45355361145792406	-0.2805319123626272	1.96833928875916	-0.4149701664901814	-0.24129527244122495	2.0102634321570854	-0.3709494495497989	-0.3077472927428478	1.9645671178249922	-0.34781634883234147	-0.3199622609936485	1.8766969542775402	-0.31578047233612283	-0.32505765434091277	1.7999575615673016	-0.27593508640695386	-0.24975395468632924	1.9731347142628757	-0.4851862543499535	-0.25070750688571247	1.8863652906125583	-0.5022679030723693	-0.246218136127606	1.8067360471366933	-0.48827111161200426
24	0.8	-0.29335515908211307	1.8084354844278256	-0.37388890342078773	-0.30499618293656183	1.8078044408455551	-0.32351664813136244	-0.3074799032509887	1.6754051138744734	-0.2978555882058095	-0.30380719205941287	1.5357628895928295	-0.2639941737683084	-0.26272038477748305	1.5104305407474108	-0.2129929224670996	-0.27845956175034825	1.514406971736571	-0.19513579546951018	-0.308019575729646	1.5161992392329218	-0.2712730877272424	-0.2749858025496813	1.8110128693215257	-0.43100490464656765	-0.2774438124960669	1.6830413388562302	-0.42165470409299893	-0.30028540741985127	1.5774633938306284	-0.4552195648028982	-0.26828498080724966	1.540340660773363	-0.4635054106477799	-0.2698401471217914	1.5539515545448284	-0.4958433343127238	-0.31847357521801883	1.5705165070534888	-0.45355361145792406	-0.27621961842997733	1.96895559148925	-0.40163768030992597	-0.23490254165598035	2.0096326293220486	-0.35136932245220204	-0.3063388407946242	1.9661946653390412	-0.3223465789940331	-0.3206586368451696	1.8733113755931592	-0.2817941527334145	-0.3194270046868006	1.79600397927244	-0.25278795496927503	-0.25139797117941065	1.9723467595368667	-0.4654534148492481	-0.24798283935548215	1.8840700956028869	-0.4921025927537745	-0.24446250223048613	1.8035845954126137	-0.4633113329363628
25	0.8333333333333334	-0.29739150062277075	1.8112735324514158	-0.37017943936602365	-0.3090754057578236	1.8092166246143992	-0.3195397225212255	-0.306506911159348	1.6769021693198274	-0.29438133875428485	-0.30382613435810774	1.5361412861894856	-0.2639140118029372	-0.26414887238257934	1.511009939184649	-0.21654850128889191	-0.280754755764916	1.5129481980109198	-0.20224830245730796	-0.30781324917820285	1.5206502943644553	-0.27217690648656473	-0.2771743282550852	1.813428736761704	-0.42936866990253125	-0.26837330362738665	1.688231387938369	-0.3905968161331441	-0.30028540741985127	1.5774633938306284	-0.4552195648028982	-0.26828498080724966	1.540340660773363	-0.4635054106477799	-0.2698401471217914	1.5539515545448284	-0.4958433343127238	-0.31847357521801883	1.5705165070534888	-0.45355361145792406	-0.2726328702672271	1.9681868889947587	-0.38323287191838695	-0.22951898925387407	2.006465205322897	-0.33444057197978005	-0.3022030440324476	1.9626744733513388	-0.30280538049935923	-0.3131207345147102	1.8747092540515466	-0.26179559343247727	-0.3115485232553022	1.7983839073808479	-0.23292600252417744	-0.24835041844062128	1.972038345578193	-0.4555732335379894	-0.25083276619736905	1.882704915183361	-0.4668826468628551	-0.24104416187355276	1.7949673179155365	-0.44313082712623425
26	0.8666666666666667	-0.2949931210957917	1.812092431281382	-0.3635668498528215	-0.3101667293457831	1.809445891017356	-0.30868995656038	-0.3049695573847303	1.6740366102813828	-0.29101614921450236	-0.3027360958898402	1.536642081450327	-0.2606048213270864	-0.26351762340247653	1.5076521412544406	-0.21673314947671204	-0.2788072031661557	1.511934317842505	-0.2041694714467233	-0.3082228095744322	1.5203303671545974	-0.2716574104130188	-0.2777779747049668	1.8141028276937485	-0.4240414112385284	-0.2630460143176796	1.6877736387534248	-0.382456460183306	-0.2910498072654996	1.5666622782839648	-0.41033381399704905	-0.25642400245616287	1.5385125759641538	-0.3974118948609317	-0.25717114977051286	1.5424035058596817	-0.4383526209058737	-0.3075396203882849	1.5563285585542097	-0.41513158608853706	-0.2700551592598513	1.966336989147891	-0.3677282831846434	-0.22349158815041162	2.0034504139028493	-0.3228777579502713	-0.2975362097982674	1.9623507124810786	-0.28962103406711187	-0.31054617842128235	1.8721348101497504	-0.24621681396588782	-0.30291436072983796	1.787140521839532	-0.21774804699224343	-0.24421492410250892	1.9703154782237418	-0.442077981933443	-0.2506490956317138	1.880728777937382	-0.45772324357411387	-0.23604728146804302	1.7932767303264783	-0.42608766629475164
27	0.9	-0.2954348347310957	1.8141374911224077	-0.3635840193148609	-0.3123533049642937	1.8104034669050633	-0.3065608880173005	-0.3048461304220189	1.6783535726256005	-0.2820260719020522	-0.3032074849069992	1.537270599410465	-0.25973570281462943	-0.2606605205371134	1.5065716370310938	-0.214858086169128	-0.2788859077165511	1.5102851341673151	-0.2036056745081089	-0.30743059302834896	1.5203887194587982	-0.26769905289266366	-0.2771646741124458	1.8159405878630912	-0.4208417148739486	-0.26078160965850217	1.6896073303501284	-0.366766947212478	-0.28181420711114796	1.5558611627373014	-0.3654480631911999	-0.24496590361510004	1.5236035726039594	-0.34982514894882294	-0.24450215241923431	1.530855457174535	-0.3808619074990235	-0.29660566555855095	1.5421406100549309	-0.3767095607191501	-0.26388786168184963	1.9634003314643884	-0.35604737544312276	-0.2162179706631259	2.0003662747457804	-0.30812449348116433	-0.29268049609709784	1.9588157680898217	-0.27540341977697996	-0.3048513313247768	1.8702397461409273	-0.24308055687393398	-0.2957970174918095	1.796012601876042	-0.21826523841382872	-0.24016203648943962	1.9685481282394752	-0.4290772969383285	-0.2471087103698371	1.8819376232175722	-0.45370365331504203	-0.23225396697805822	1.7942616671395009	-0.41252856580661657
28	0.9333333333333333	-0.29504528777374744	1.8113195807080993	-0.35426478892696406	-0.3127808667251487	1.808220444884329	-0.29182235253829547	-0.2961308045089333	1.6729346000328456	-0.2721338491973543	-0.302159164660319	1.5362358520070654	-0.25565743982724676	-0.2597890285220679	1.5051877487878578	-0.22026439437377923	-0.2781502474995084	1.5051171090992603	-0.19808973228251514	-0.30747541765021896	1.5258028607449894	-0.2594256401989748	-0.2768416096543493	1.8142085228730003	-0.41179891223677306	-0.2587902455533452	1.6820374640243465	-0.35390041111712484	-0.2714211298986265	1.5404093226675573	-0.33633490835188723	-0.22701300625413265	1.517484653055165	-0.3107719738225332	-0.2268246425239514	1.5224198160407645	-0.3419185991765177	-0.28567171072881703	1.5279526615556518	-0.33828753534976314	-0.25865678928874725	1.9616746816704722	-0.3477664735077581	-0.20739518746457028	1.9959666522553878	-0.3029267398052407	-0.28442386578138956	1.9544053606873557	-0.26518025644661125	-0.29630474633783266	1.8646183179997748	-0.2383208473303132	-0.2817100225806686	1.775606644390468	-0.2322630652657051	-0.23506552476582204	1.966879884978691	-0.4208935814679056	-0.23918641381774372	1.8809447315003263	-0.4534434906306433	-0.23076854881705455	1.7943534265325098	-0.40555072171939527
